<svg width="954" height="234" viewBox="0 0 954 234" fill="none" xmlns="http://www.w3.org/2000/svg">
<g filter="url(#filter0_d_40_109)">
<rect x="4" width="946" height="226" fill="#1A1A2E"/>
<path d="M606.044 188V20.6408H728.263V46.701H637.137V161.94H731.612V188H606.044ZM634.746 115.796V90.2144H717.979V115.796H634.746Z" fill="#2ECC71"/>
<path d="M323.426 188V46.9401H267.938V20.6408H410.008V46.9401H354.519V188H323.426Z" fill="#2ECC71"/>
<path d="M501.47 188C489.544 188 478.762 186.054 469.123 182.161C459.647 178.268 452.132 172.662 446.577 165.344C441.022 158.026 438.163 149.384 438 139.418H474.759C475.249 146.114 477.7 151.408 482.111 155.301C486.685 159.193 492.893 161.14 500.735 161.14C508.74 161.14 515.03 159.349 519.605 155.768C524.179 152.031 526.466 147.204 526.466 141.287C526.466 136.46 524.914 132.489 521.81 129.375C518.706 126.261 514.785 123.847 510.047 122.134C505.473 120.266 499.101 118.241 490.933 116.062C479.823 112.947 470.756 109.911 463.731 106.952C456.87 103.838 450.906 99.2448 445.842 93.172C440.941 86.9436 438.49 78.6909 438.49 68.414C438.49 58.7599 441.022 50.3515 446.087 43.1888C451.152 36.0261 458.258 30.5762 467.407 26.8392C476.556 22.9464 487.012 21 498.775 21C516.419 21 530.714 25.1263 541.66 33.379C552.769 41.476 558.896 52.8429 560.04 67.4797H522.3C521.974 61.8741 519.441 57.2806 514.704 53.6993C510.129 49.9622 504.003 48.0937 496.324 48.0937C489.626 48.0937 484.235 49.7287 480.15 52.9986C476.229 56.2685 474.269 61.0177 474.269 67.2461C474.269 71.6061 475.739 75.2653 478.68 78.2238C481.784 81.0266 485.542 83.3622 489.953 85.2308C494.527 86.9436 500.899 88.9678 509.067 91.3035C520.177 94.4177 529.244 97.5319 536.269 100.646C543.294 103.76 549.339 108.432 554.403 114.66C559.468 120.889 562 129.063 562 139.185C562 147.904 559.631 156.001 554.893 163.476C550.155 170.95 543.212 176.945 534.063 181.46C524.914 185.82 514.05 188 501.47 188Z" fill="#2ECC71"/>
<path d="M191.47 188C179.544 188 168.762 186.054 159.123 182.161C149.647 178.268 142.132 172.662 136.577 165.344C131.022 158.026 128.163 149.384 128 139.418H164.759C165.249 146.114 167.7 151.408 172.111 155.301C176.685 159.193 182.893 161.14 190.735 161.14C198.74 161.14 205.03 159.349 209.605 155.768C214.179 152.031 216.466 147.204 216.466 141.287C216.466 136.46 214.914 132.489 211.81 129.375C208.706 126.261 204.785 123.847 200.047 122.134C195.473 120.266 189.101 118.241 180.933 116.062C169.823 112.947 160.756 109.911 153.731 106.952C146.87 103.838 140.906 99.2448 135.842 93.172C130.941 86.9436 128.49 78.6909 128.49 68.414C128.49 58.7599 131.022 50.3515 136.087 43.1888C141.152 36.0261 148.258 30.5762 157.407 26.8392C166.556 22.9464 177.012 21 188.775 21C206.419 21 220.714 25.1263 231.66 33.379C242.769 41.476 248.896 52.8429 250.04 67.4797H212.3C211.974 61.8741 209.441 57.2806 204.704 53.6993C200.129 49.9622 194.003 48.0937 186.324 48.0937C179.626 48.0937 174.235 49.7287 170.15 52.9986C166.229 56.2685 164.269 61.0177 164.269 67.2461C164.269 71.6061 165.739 75.2653 168.68 78.2238C171.784 81.0266 175.542 83.3622 179.953 85.2308C184.527 86.9436 190.899 88.9678 199.067 91.3035C210.177 94.4177 219.244 97.5319 226.269 100.646C233.294 103.76 239.339 108.432 244.403 114.66C249.468 120.889 252 129.063 252 139.185C252 147.904 249.631 156.001 244.893 163.476C240.155 170.95 233.212 176.945 224.063 181.46C214.914 185.82 204.05 188 191.47 188Z" fill="#2ECC71"/>
<path d="M791.142 90H773C765.82 90 760 95.8203 760 103C760 110.18 765.82 116.5 773 116.5H791.142V188H760V21H791.142V90ZM909 188H877.858V116.5H896C903.18 116.5 909 110.18 909 103C909 95.8203 903.18 90 896 90H877.858V21H909V188Z" fill="#2ECC71"/>
<ellipse cx="3.86966" cy="6.17043" rx="3.86966" ry="6.17043" transform="matrix(-0.385983 0.922506 -0.905824 -0.423654 906.072 96.5116)" fill="white" fill-opacity="0.38"/>
<ellipse cx="1.30615" cy="2.38936" rx="1.30615" ry="2.38936" transform="matrix(-0.430474 0.902603 -0.882434 -0.470436 905.217 98.1203)" fill="white" fill-opacity="0.6"/>
<path d="M908 103.189C908 110.25 902.276 115.973 895.216 115.973L872.999 115.973L838 115.999L838 90.0068L895.306 90.4062C902.331 90.4554 908 96.1641 908 103.189Z" fill="#2ECC71" stroke="#2CA861" stroke-width="2"/>
<path d="M761.003 102.663L761.004 102.663C761.174 95.5943 766.671 90.0002 773.329 90L835 90L835 115.944L773.345 116C766.577 116.009 761.003 110.235 761 103.005L761.003 102.663ZM761.014 102.999C761.014 110.075 766.491 115.895 773.345 115.886L833.988 115.806L834.986 115.805L834.986 90.1143L773.329 90.1143C766.589 90.1145 761.185 95.7499 761.018 102.669L761.014 102.999Z" fill="#0F0F1A" stroke="#2CA861" stroke-width="2"/>
<path d="M81.1981 10.2224L90.5681 12.9772C99.4672 15.5935 104.56 24.9281 101.944 33.8273L82.1013 101.321L40.5052 89.0926L60.348 21.5984C62.9643 12.6992 72.2989 7.60619 81.1981 10.2224Z" fill="#2ECC71" stroke="#2CA861" stroke-width="2.33519"/>
<path d="M39.1388 187.911L29.7688 185.156C20.8697 182.54 15.7766 173.205 18.3929 164.306L39.3096 93.1589L80.9057 105.388L59.989 176.535C57.3726 185.434 48.038 190.527 39.1388 187.911Z" stroke="#2CA861" stroke-width="2.33519"/>
<ellipse cx="71.4126" cy="18.2913" rx="4.36096" ry="7.2191" transform="rotate(49.9215 71.4126 18.2913)" fill="white" fill-opacity="0.38"/>
<ellipse cx="71.429" cy="14.9836" rx="1.28624" ry="2.53246" transform="rotate(63.1289 71.429 14.9836)" fill="white" fill-opacity="0.6"/>
</g>
<defs>
<filter id="filter0_d_40_109" x="0" y="0" width="954" height="234" filterUnits="userSpaceOnUse" color-interpolation-filters="sRGB">
<feFlood flood-opacity="0" result="BackgroundImageFix"/>
<feColorMatrix in="SourceAlpha" type="matrix" values="0 0 0 0 0 0 0 0 0 0 0 0 0 0 0 0 0 0 127 0" result="hardAlpha"/>
<feOffset dy="4"/>
<feGaussianBlur stdDeviation="2"/>
<feComposite in2="hardAlpha" operator="out"/>
<feColorMatrix type="matrix" values="0 0 0 0 0 0 0 0 0 0 0 0 0 0 0 0 0 0 0.25 0"/>
<feBlend mode="normal" in2="BackgroundImageFix" result="effect1_dropShadow_40_109"/>
<feBlend mode="normal" in="SourceGraphic" in2="effect1_dropShadow_40_109" result="shape"/>
</filter>
</defs>
</svg>
